<svg xmlns="http://www.w3.org/2000/svg" xmlns:xlink="http://www.w3.org/1999/xlink" width="500" zoomAndPan="magnify" viewBox="0 0 375 374.999991" height="500" preserveAspectRatio="xMidYMid meet" version="1.0"><defs><g/><clipPath id="a3d75b3d43"><path d="M 5.507812 134.175781 L 92 134.175781 L 92 224.925781 L 5.507812 224.925781 Z M 5.507812 134.175781 " clip-rule="nonzero"/></clipPath><clipPath id="289b2a9995"><path d="M 21 134.175781 L 108 134.175781 L 108 224.925781 L 21 224.925781 Z M 21 134.175781 " clip-rule="nonzero"/></clipPath></defs><g clip-path="url(#a3d75b3d43)"><path fill="#38b6ff" d="M 91.515625 178.933594 C 91.515625 179.429688 91.515625 180.15625 91.515625 180.796875 L 91.515625 180.914062 C 91.515625 181.148438 91.515625 181.378906 91.515625 181.554688 C 91.515625 181.847656 91.488281 182.136719 91.488281 182.429688 C 91.28125 189.445312 90.265625 195.589844 88.515625 200.800781 C 86.769531 206.011719 84.265625 210.320312 81.035156 213.785156 C 78.09375 216.960938 74.570312 219.433594 70.496094 221.269531 C 66.417969 223.101562 61.761719 224.265625 56.492188 224.734375 C 56.460938 224.734375 56.402344 224.761719 56.375 224.761719 C 54.570312 224.90625 52.707031 224.996094 50.785156 224.996094 L 46.359375 224.996094 C 39.660156 224.996094 33.78125 224.0625 28.742188 222.199219 C 23.707031 220.335938 19.457031 217.601562 15.992188 213.929688 C 12.527344 210.261719 9.90625 205.632812 8.160156 199.957031 C 6.382812 194.277344 5.507812 187.554688 5.507812 179.808594 C 5.507812 172.003906 6.410156 165.25 8.160156 159.515625 C 9.90625 153.78125 12.527344 149.121094 15.992188 145.394531 C 19.457031 141.667969 23.707031 138.902344 28.742188 137.007812 C 33.316406 135.320312 38.554688 134.386719 44.464844 134.214844 C 43.503906 134.5625 42.542969 134.941406 41.613281 135.347656 C 37.214844 137.300781 33.402344 139.980469 30.199219 143.355469 C 26.53125 147.226562 23.765625 152.089844 21.902344 157.855469 C 20.039062 163.621094 19.078125 170.289062 18.960938 177.886719 C 18.960938 178.351562 18.960938 178.875 18.960938 179.371094 C 18.960938 179.867188 18.960938 180.363281 18.960938 180.855469 C 19.046875 184.789062 19.425781 188.367188 20.097656 191.542969 C 20.359375 192.792969 20.621094 193.988281 20.96875 195.125 C 22.019531 198.617188 23.53125 201.527344 25.511719 203.828125 C 27.695312 206.390625 30.605469 208.28125 34.101562 209.535156 C 35.730469 210.117188 37.476562 210.554688 39.339844 210.84375 C 39.488281 210.875 39.632812 210.902344 39.75 210.902344 C 39.835938 210.902344 39.921875 210.933594 39.980469 210.933594 C 41.933594 211.222656 44 211.371094 46.210938 211.371094 L 50.636719 211.371094 C 51.191406 211.371094 51.714844 211.371094 52.238281 211.339844 C 53.839844 211.3125 55.382812 211.164062 56.867188 210.960938 C 59.984375 210.523438 62.75 209.710938 65.195312 208.515625 C 67.640625 207.324219 69.707031 205.722656 71.425781 203.742188 C 73.667969 201.179688 75.269531 197.832031 76.347656 193.8125 C 77.425781 189.796875 77.917969 185.050781 77.917969 179.605469 C 77.917969 174.160156 77.394531 169.445312 76.347656 165.394531 C 75.296875 161.378906 73.699219 158.03125 71.484375 155.4375 C 69.796875 153.460938 67.730469 151.859375 65.28125 150.636719 C 65.195312 150.605469 65.109375 150.546875 64.992188 150.519531 L 66.972656 150.519531 C 69.125 150.519531 71.164062 150.664062 73 150.925781 C 73.058594 150.925781 73.113281 150.925781 73.144531 150.957031 C 73.261719 150.984375 73.40625 151.011719 73.523438 151.011719 C 73.8125 151.070312 74.132812 151.128906 74.425781 151.160156 C 74.601562 151.1875 74.773438 151.21875 74.949219 151.277344 C 75.007812 151.277344 75.035156 151.304688 75.09375 151.304688 L 75.210938 151.332031 C 75.296875 151.363281 75.386719 151.363281 75.472656 151.390625 C 75.648438 151.421875 75.792969 151.480469 75.96875 151.507812 C 76.40625 151.625 76.84375 151.742188 77.25 151.859375 C 77.335938 151.886719 77.394531 151.914062 77.480469 151.945312 C 77.773438 152.03125 78.035156 152.121094 78.328125 152.234375 C 81.414062 153.371094 83.859375 155.03125 85.722656 157.242188 C 87.5 159.339844 88.925781 162.164062 89.945312 165.6875 C 90.175781 166.472656 90.378906 167.316406 90.554688 168.164062 C 91.019531 170.609375 91.339844 173.316406 91.457031 176.34375 C 91.457031 176.664062 91.488281 176.957031 91.488281 177.21875 C 91.488281 177.390625 91.488281 177.625 91.488281 177.859375 C 91.546875 178.207031 91.515625 178.46875 91.515625 178.933594 Z M 91.515625 178.933594 " fill-opacity="1" fill-rule="nonzero"/></g><g clip-path="url(#289b2a9995)"><path fill="#ffffff" d="M 107.90625 179.429688 C 107.90625 187.234375 107.003906 193.988281 105.257812 199.695312 C 103.511719 205.429688 100.890625 210.089844 97.425781 213.816406 C 93.960938 217.542969 89.710938 220.308594 84.675781 222.199219 C 80.042969 223.917969 74.746094 224.851562 68.71875 224.996094 C 69.738281 224.644531 70.726562 224.265625 71.660156 223.832031 C 76.054688 221.851562 79.871094 219.144531 83.074219 215.738281 C 86.625 211.953125 89.304688 207.265625 91.167969 201.730469 C 93.03125 196.199219 94.050781 189.796875 94.28125 182.574219 C 94.28125 182.3125 94.3125 181.992188 94.3125 181.671875 C 94.3125 181.410156 94.3125 181.175781 94.3125 180.972656 L 94.3125 180.769531 C 94.3125 180.128906 94.3125 179.402344 94.3125 178.90625 C 94.3125 178.46875 94.3125 178.234375 94.3125 177.945312 L 94.3125 177.914062 C 94.3125 177.710938 94.3125 177.480469 94.3125 177.21875 C 94.3125 176.898438 94.28125 176.605469 94.28125 176.34375 L 94.28125 176.316406 C 94.105469 171.65625 93.496094 167.578125 92.449219 164.085938 C 91.398438 160.59375 89.886719 157.679688 87.90625 155.378906 C 85.722656 152.820312 82.8125 150.925781 79.316406 149.675781 C 75.824219 148.421875 71.71875 147.839844 67.03125 147.8125 L 62.605469 147.8125 C 60.449219 147.8125 58.410156 147.957031 56.519531 148.21875 C 53.402344 148.65625 50.636719 149.46875 48.191406 150.664062 C 45.746094 151.859375 43.679688 153.460938 41.960938 155.4375 C 39.75 158 38.117188 161.347656 37.042969 165.367188 C 35.964844 169.386719 35.46875 174.132812 35.46875 179.574219 C 35.46875 185.019531 35.992188 189.738281 37.042969 193.785156 C 38.089844 197.800781 39.691406 201.148438 41.902344 203.742188 C 43.59375 205.722656 45.660156 207.324219 48.105469 208.546875 C 48.191406 208.574219 48.28125 208.632812 48.394531 208.660156 L 46.300781 208.660156 C 41.902344 208.660156 38.148438 208.078125 35.0625 206.945312 C 31.976562 205.808594 29.53125 204.148438 27.667969 201.9375 C 25.890625 199.839844 24.464844 197.015625 23.445312 193.492188 C 22.425781 189.96875 21.871094 185.746094 21.753906 180.855469 C 21.753906 180.363281 21.753906 179.894531 21.753906 179.402344 C 21.753906 178.90625 21.753906 178.441406 21.753906 177.945312 C 21.871094 170.578125 22.804688 164.144531 24.578125 158.730469 C 26.328125 153.285156 28.917969 148.828125 32.238281 145.277344 C 35.179688 142.164062 38.699219 139.6875 42.777344 137.910156 C 46.851562 136.105469 51.511719 134.941406 56.78125 134.476562 C 58.644531 134.300781 60.59375 134.214844 62.605469 134.214844 L 67.03125 134.214844 C 73.726562 134.214844 79.609375 135.144531 84.644531 137.007812 C 89.683594 138.871094 93.933594 141.609375 97.398438 145.277344 C 99.113281 147.113281 100.660156 149.179688 101.9375 151.507812 C 103.25 153.835938 104.355469 156.398438 105.230469 159.253906 C 107.003906 164.960938 107.90625 171.683594 107.90625 179.429688 Z M 107.90625 179.429688 " fill-opacity="1" fill-rule="nonzero"/></g><g fill="#ffffff" fill-opacity="1"><g transform="translate(109.702768, 216.731295)"><g><path d="M 22.03125 0 L 8.90625 0 L 8.90625 -68.53125 L 24.421875 -68.53125 L 51.9375 -24.375 L 53.15625 -24.5625 L 53.15625 -68.53125 L 66.1875 -68.53125 L 66.1875 0 L 52.3125 0 L 23.203125 -47.15625 L 22.03125 -46.96875 Z M 22.03125 0 "/></g></g><g transform="translate(184.843388, 216.731295)"><g><path d="M 22.453125 -30.09375 L 22.453125 -11.34375 L 55.171875 -11.34375 L 55.171875 0 L 8.90625 0 L 8.90625 -68.53125 L 54.421875 -68.53125 L 54.421875 -57.1875 L 22.453125 -57.1875 L 22.453125 -41.15625 L 50.390625 -41.15625 L 50.390625 -30.09375 Z M 22.453125 -30.09375 "/></g></g><g transform="translate(243.765259, 216.731295)"><g><path d="M 54.9375 -68.53125 L 54.9375 -57.140625 L 35.15625 -57.140625 L 35.15625 0 L 21.65625 0 L 21.65625 -57.140625 L 1.875 -57.140625 L 1.875 -68.53125 Z M 54.9375 -68.53125 "/></g></g><g transform="translate(300.577756, 216.731295)"><g><path d="M 53.15625 -42.75 L 53.15625 -68.53125 L 66.65625 -68.53125 L 66.65625 0 L 53.15625 0 L 53.15625 -31.21875 L 22.453125 -31.21875 L 22.453125 0 L 8.90625 0 L 8.90625 -68.53125 L 22.453125 -68.53125 L 22.453125 -42.75 Z M 53.15625 -42.75 "/></g></g></g></svg>