<svg xmlns="http://www.w3.org/2000/svg" xmlns:xlink="http://www.w3.org/1999/xlink" width="500" zoomAndPan="magnify" viewBox="0 0 375 374.999991" height="500" preserveAspectRatio="xMidYMid meet" version="1.2"><defs/><g id="4ac29ddda4"><g style="fill:#ffffff;fill-opacity:1;"><g transform="translate(189.024716, 236.032734)"><path style="stroke:none" d="M 53.09375 -64.234375 C 59.164062 -61.429688 63.816406 -57.351562 67.046875 -52 C 70.285156 -46.65625 71.90625 -40.554688 71.90625 -33.703125 C 71.90625 -26.472656 70.191406 -20.347656 66.765625 -15.328125 C 63.335938 -10.316406 58.898438 -6.507812 53.453125 -3.90625 C 48.003906 -1.300781 42.191406 0 36.015625 0 C 36.015625 0 35.96875 0 35.875 0 L 35.875 -20.828125 C 35.96875 -20.828125 36.015625 -20.828125 36.015625 -20.828125 C 39.878906 -20.828125 43.253906 -22.007812 46.140625 -24.375 C 49.035156 -26.738281 50.484375 -29.847656 50.484375 -33.703125 C 50.484375 -36.597656 49.734375 -39.054688 48.234375 -41.078125 C 46.742188 -43.109375 44.890625 -44.703125 42.671875 -45.859375 C 40.453125 -47.015625 38.234375 -47.640625 36.015625 -47.734375 C 35.535156 -47.734375 33.609375 -47.898438 30.234375 -48.234375 C 26.859375 -48.578125 23.050781 -49.710938 18.8125 -51.640625 C 12.832031 -54.441406 8.203125 -58.328125 4.921875 -63.296875 C 1.640625 -68.265625 0 -74.125 0 -80.875 C 0 -88.101562 1.707031 -94.320312 5.125 -99.53125 C 8.550781 -104.738281 13.015625 -108.738281 18.515625 -111.53125 C 24.015625 -114.332031 29.847656 -115.734375 36.015625 -115.734375 C 42.671875 -115.734375 48.648438 -114.359375 53.953125 -111.609375 C 59.265625 -108.859375 63.488281 -105 66.625 -100.03125 C 69.757812 -95.070312 71.375 -89.3125 71.46875 -82.75 C 71.5625 -82.5625 71.4375 -82.320312 71.09375 -82.03125 C 70.757812 -81.738281 70.351562 -81.59375 69.875 -81.59375 L 51.796875 -81.59375 C 51.410156 -81.59375 51.046875 -81.738281 50.703125 -82.03125 C 50.367188 -82.320312 50.203125 -82.5625 50.203125 -82.75 C 50.109375 -86.894531 48.660156 -89.957031 45.859375 -91.9375 C 43.066406 -93.914062 39.785156 -94.90625 36.015625 -94.90625 C 32.066406 -94.90625 28.671875 -93.722656 25.828125 -91.359375 C 22.984375 -88.992188 21.5625 -85.5 21.5625 -80.875 C 21.5625 -76.726562 23.054688 -73.566406 26.046875 -71.390625 C 29.035156 -69.222656 32.359375 -68.140625 36.015625 -68.140625 C 36.304688 -68.140625 37.269531 -68.085938 38.90625 -67.984375 C 40.550781 -67.890625 42.648438 -67.578125 45.203125 -67.046875 C 47.765625 -66.523438 50.394531 -65.585938 53.09375 -64.234375 Z M 53.09375 -64.234375 "/></g></g><g style="fill:#ffffff;fill-opacity:1;"><g transform="translate(86.401772, 264.764215)"><path style="stroke:none" d="M 66.546875 -57.578125 C 66.546875 -54.585938 65.507812 -52.03125 63.4375 -49.90625 C 61.363281 -47.789062 58.785156 -46.734375 55.703125 -46.734375 C 52.710938 -46.734375 50.15625 -47.789062 48.03125 -49.90625 C 45.90625 -52.03125 44.84375 -54.585938 44.84375 -57.578125 C 44.84375 -60.660156 45.90625 -63.265625 48.03125 -65.390625 C 50.15625 -67.515625 52.710938 -68.578125 55.703125 -68.578125 C 58.785156 -68.578125 61.363281 -67.515625 63.4375 -65.390625 C 65.507812 -63.265625 66.546875 -60.660156 66.546875 -57.578125 Z M 111.390625 -58.015625 C 111.390625 -50.773438 110.234375 -43.707031 107.921875 -36.8125 C 105.609375 -29.914062 102.132812 -23.695312 97.5 -18.15625 C 92.875 -12.613281 87.085938 -8.203125 80.140625 -4.921875 C 73.203125 -1.640625 65.101562 0 55.84375 0 C 46.488281 0 38.3125 -1.640625 31.3125 -4.921875 C 24.320312 -8.203125 18.507812 -12.613281 13.875 -18.15625 C 9.25 -23.695312 5.78125 -29.914062 3.46875 -36.8125 C 1.15625 -43.707031 0 -50.773438 0 -58.015625 C 0 -65.242188 1.15625 -72.28125 3.46875 -79.125 C 5.78125 -85.976562 9.25 -92.15625 13.875 -97.65625 C 18.507812 -103.15625 24.320312 -107.539062 31.3125 -110.8125 C 38.3125 -114.09375 46.488281 -115.734375 55.84375 -115.734375 C 65.101562 -115.734375 73.203125 -114.09375 80.140625 -110.8125 C 87.085938 -107.539062 92.875 -103.15625 97.5 -97.65625 C 102.132812 -92.15625 105.609375 -85.976562 107.921875 -79.125 C 110.234375 -72.28125 111.390625 -65.242188 111.390625 -58.015625 Z M 89.703125 -57.578125 C 89.703125 -62.304688 88.976562 -66.910156 87.53125 -71.390625 C 86.082031 -75.878906 83.957031 -79.929688 81.15625 -83.546875 C 78.363281 -87.160156 74.84375 -90.03125 70.59375 -92.15625 C 66.351562 -94.28125 61.4375 -95.34375 55.84375 -95.34375 C 50.15625 -95.34375 45.1875 -94.28125 40.9375 -92.15625 C 36.695312 -90.03125 33.15625 -87.160156 30.3125 -83.546875 C 27.46875 -79.929688 25.34375 -75.878906 23.9375 -71.390625 C 22.539062 -66.910156 21.84375 -62.304688 21.84375 -57.578125 C 21.84375 -52.953125 22.539062 -48.421875 23.9375 -43.984375 C 25.34375 -39.546875 27.46875 -35.539062 30.3125 -31.96875 C 33.15625 -28.40625 36.695312 -25.5625 40.9375 -23.4375 C 45.1875 -21.3125 50.15625 -20.25 55.84375 -20.25 C 61.4375 -20.25 66.351562 -21.3125 70.59375 -23.4375 C 74.84375 -25.5625 78.363281 -28.40625 81.15625 -31.96875 C 83.957031 -35.539062 86.082031 -39.546875 87.53125 -43.984375 C 88.976562 -48.421875 89.703125 -52.953125 89.703125 -57.578125 Z M 89.703125 -57.578125 "/></g></g></g></svg>